<svg id="aa5b50b9-db4f-4252-8eb2-32777a9e4f5a" data-name="Слой 1" xmlns="http://www.w3.org/2000/svg" viewBox="0 0 19 19"><path d="M15.31,9.5A5.81,5.81,0,1,1,9.5,3.69,5.81,5.81,0,0,1,15.31,9.5Zm-.75,0A5.06,5.06,0,1,0,9.5,14.56,5.06,5.06,0,0,0,14.56,9.5Zm-4.46,0,1.62,1.62a.28.28,0,0,1,0,.4l-.2.2a.28.28,0,0,1-.4,0L9.5,10.1,7.88,11.72a.28.28,0,0,1-.4,0l-.2-.2a.28.28,0,0,1,0-.4L8.9,9.5,7.28,7.88a.28.28,0,0,1,0-.4l.2-.2a.28.28,0,0,1,.4,0L9.5,8.9l1.62-1.62a.28.28,0,0,1,.4,0l.2.2a.28.28,0,0,1,0,.4Z"/></svg>